<svg width="60" height="60" viewBox="0 0 60 60" fill="none" xmlns="http://www.w3.org/2000/svg">
<g transform="translate(30,30) scale(1.2) translate(-30,-30)">
<path d="M30 55C43.8071 55 55 43.8071 55 30C55 16.1929 43.8071 5 30 5C16.1929 5 5 16.1929 5 30C5 43.8071 16.1929 55 30 55Z" fill="#DD1438"/>
<path d="M52.2845 35.564C49.2122 47.8854 36.7313 55.384 24.407 52.3114C12.0877 49.2395 4.58821 36.7593 7.66191 24.4386C10.7327 12.1157 23.2137 4.61636 35.5344 7.68826C47.858 10.7602 55.3568 23.2419 52.2845 35.564Z" fill="white"/>
<path d="M29.7364 13L29.5017 13.7974V36.9344L29.7364 37.1686L40.4741 30.8202L29.7364 13Z" fill="#343434"/>
<path d="M29.7379 13L19 30.8202L29.7379 37.1686V25.9385V13Z" fill="#8C8C8C"/>
<path d="M29.7389 39.2031L29.6066 39.3645V47.6062L29.7389 47.9925L40.4831 32.8581L29.7389 39.2031Z" fill="#3C3C3B"/>
<path d="M29.7379 47.9925V39.2031L19 32.8581L29.7379 47.9925Z" fill="#8C8C8C"/>
<path d="M29.7367 37.1694L40.4743 30.821L29.7367 25.9393V37.1694Z" fill="#141414"/>
<path d="M19 30.821L29.7379 37.1694V25.9393L19 30.821Z" fill="#393939"/>
</g>
</svg>
