<svg width="60" height="60" viewBox="0 0 60 60" fill="none" xmlns="http://www.w3.org/2000/svg">
<g transform="translate(30,30) scale(1.2) translate(-30,-30)">
<path d="M30 55C43.8071 55 55 43.8071 55 30C55 16.1929 43.8071 5 30 5C16.1929 5 5 16.1929 5 30C5 43.8071 16.1929 55 30 55Z" fill="#DD1438"/>
<path d="M52.2845 35.564C49.2123 47.8854 36.7313 55.384 24.407 52.3114C12.0877 49.2395 4.58823 36.7593 7.66193 24.4386C10.7328 12.1157 23.2137 4.61636 35.5344 7.68826C47.858 10.7602 55.3568 23.2419 52.2845 35.564Z" fill="white"/>
<path d="M30 48C39.9411 48 48 39.9411 48 30C48 20.0589 39.9411 12 30 12C20.0589 12 12 20.0589 12 30C12 39.9411 20.0589 48 30 48Z" fill="#DD1438"/>
<path d="M40.2043 21.2213C39.7556 20.1393 39.0881 19.1618 38.2437 18.3499C37.392 17.5537 36.4013 16.9205 35.3209 16.482C34.5873 16.1899 33.8166 16.0012 33.031 15.9211C31.5396 15.714 30.02 15.8907 28.6158 16.4343C27.2116 16.9779 25.9692 17.8706 25.006 19.0279C24.0428 20.1853 23.3907 21.5692 23.1111 23.0487C22.8316 24.5283 22.9339 26.0547 23.4084 27.4837V27.5095C22.7493 27.919 22.1471 28.4139 21.6177 28.9812C20.8003 29.8381 20.1556 30.8444 19.7189 31.9451C19.2986 33.0474 19.0874 34.2183 19.0962 35.398C19.0989 36.5694 19.3441 37.7275 19.8166 38.7993C20.2672 39.8803 20.9344 40.8575 21.7772 41.6707C22.6316 42.4661 23.6238 43.099 24.7051 43.5386C25.6892 43.927 26.7348 44.1361 27.7926 44.1561H27.9521C29.3547 44.1668 30.7399 43.8452 31.9943 43.2175C33.2486 42.5899 34.3365 41.674 35.1688 40.5451C36.0011 39.4161 36.5542 38.106 36.7828 36.7221C37.0113 35.3382 36.9089 33.9199 36.4839 32.5832C37.1847 32.1583 37.8236 31.6388 38.3827 31.0395C39.2071 30.186 39.8588 29.1814 40.302 28.0807C40.726 26.9775 40.9389 25.8045 40.9298 24.6227C40.9254 23.451 40.6784 22.2928 40.2043 21.2213ZM32.4444 21.8594C32.3797 21.5812 32.3503 21.2959 32.3569 21.0103C32.6782 21.0639 32.9924 21.1537 33.2935 21.2779C33.7169 21.4604 34.0935 21.7366 34.3947 22.0858C34.6857 22.4282 34.9124 22.8204 35.0636 23.2436C35.2038 23.6612 35.27 24.1 35.2592 24.5403C35.211 25.3622 34.861 26.1374 34.2763 26.717L32.4444 21.8594ZM34.5387 27.4066C34.5954 27.3551 34.652 27.2985 34.7034 27.2419C35.0568 26.8681 35.3315 26.4271 35.5113 25.9451C35.6837 25.4671 35.764 24.9608 35.748 24.4529C35.7415 23.9558 35.6274 23.466 35.4135 23.0172C35.1954 22.5851 34.9027 22.1949 34.549 21.8645C34.2007 21.5465 33.7934 21.3 33.3501 21.139C33.0278 21.03 32.6917 20.9676 32.3518 20.9537C32.37 20.392 32.5142 19.8416 32.7737 19.3431C33.1645 19.4162 33.5447 19.5372 33.9058 19.7033C34.5341 19.9936 35.1016 20.4004 35.5782 20.9023C36.0221 21.4179 36.38 22.0017 36.6382 22.6313C36.8685 23.2589 36.9818 23.9233 36.9727 24.5918C36.9825 25.2584 36.8344 25.9179 36.5405 26.5163C36.3 27.1193 35.9231 27.6582 35.4393 28.0909C35.2784 28.2333 35.1063 28.3623 34.9247 28.4769L34.5387 27.4066ZM35.1923 29.1304C35.4424 28.9463 35.6781 28.7433 35.8972 28.5232C36.9024 27.4255 37.4541 25.9875 37.441 24.4992C37.4294 23.7726 37.2683 23.0561 36.9676 22.3945C36.6785 21.7385 36.2562 21.1497 35.7274 20.6656C35.2156 20.1856 34.614 19.8114 33.9573 19.5644C33.5802 19.433 33.1905 19.3416 32.7943 19.2916C32.9603 18.9806 33.1719 18.6961 33.4221 18.4477C33.6138 18.2516 33.828 18.0789 34.0602 17.9331C34.2358 17.9931 34.4076 18.0635 34.5748 18.1441C35.4095 18.4977 36.16 19.0238 36.7772 19.6879C37.4076 20.3389 37.9056 21.1061 38.2437 21.9469C38.5622 22.7885 38.7227 23.6817 38.7171 24.5815C38.6771 25.4657 38.4838 26.3363 38.146 27.1544C37.7831 27.9408 37.2771 28.6527 36.6537 29.2539C36.3308 29.5801 35.9717 29.8685 35.5833 30.1132L35.1923 29.1304ZM25.8321 42.0361C25.6881 41.9879 25.5472 41.9312 25.4101 41.8662C24.5754 41.5126 23.8248 40.9865 23.2077 40.3225C22.5913 39.6714 22.1057 38.908 21.7772 38.0738C21.4587 37.2322 21.2982 36.339 21.3038 35.4391C21.3433 34.5548 21.5366 33.6842 21.8749 32.8662C22.2376 32.0783 22.7437 31.3646 23.3672 30.7616C23.6673 30.4574 23.9965 30.1834 24.3501 29.9434L24.7411 30.9726C24.5186 31.1405 24.3071 31.3227 24.1082 31.518C23.6071 32.0605 23.2156 32.6948 22.9556 33.386C22.6853 34.0739 22.5525 34.8082 22.5645 35.5472C22.5766 36.2737 22.7378 36.9901 23.0379 37.6518C23.6292 38.9538 24.7113 39.9693 26.0482 40.4769C26.3823 40.5962 26.7269 40.6841 27.0773 40.7393C26.9116 41.0327 26.7074 41.3027 26.4701 41.5421C26.2766 41.7301 26.0626 41.8958 25.8321 42.0361V42.0361ZM26.0945 40.3019C25.4662 40.0117 24.8987 39.6048 24.4221 39.1029C23.9794 38.5883 23.6215 38.0064 23.3621 37.3791C23.1322 36.7496 23.0189 36.0835 23.0276 35.4134C23.0178 34.7468 23.1659 34.0873 23.4598 33.4889C23.7003 32.886 24.0772 32.347 24.561 31.9143C24.6913 31.7945 24.8288 31.6828 24.9727 31.5798L25.3792 32.681L25.2815 32.7788C24.9281 33.1526 24.6534 33.5936 24.4736 34.0755C24.3011 34.5535 24.2208 35.0599 24.2369 35.5678C24.2434 36.0649 24.3575 36.5547 24.5713 37.0035C24.7895 37.4355 25.0821 37.8257 25.4358 38.1561C25.7841 38.4741 26.1915 38.7207 26.6348 38.8817C26.9289 38.9818 27.2354 39.0407 27.5456 39.0566C27.5223 39.6169 27.3709 40.1644 27.1031 40.657C26.7547 40.5767 26.4164 40.4576 26.0945 40.3019V40.3019ZM27.489 38.1304C27.5436 38.4117 27.5678 38.6981 27.561 38.9846C27.2685 38.9271 26.9824 38.8409 26.7068 38.7273C26.2834 38.5448 25.9068 38.2686 25.6056 37.9194C25.3146 37.577 25.0879 37.1848 24.9367 36.7616C24.7965 36.344 24.7303 35.9052 24.7411 35.4649C24.7892 34.6759 25.1135 33.929 25.6571 33.3551L27.489 38.1304ZM20.1408 38.645C19.7613 37.601 19.568 36.4985 19.5696 35.3877C19.6204 34.2846 19.866 33.1993 20.2952 32.1819C20.7402 31.1737 21.3742 30.2601 22.1631 29.4906C22.6254 29.0308 23.1441 28.6314 23.7068 28.3019L23.995 29.0635C23.5419 29.3557 23.1256 29.7012 22.7549 30.0927C22.095 30.814 21.5874 31.6611 21.2626 32.5832C20.9388 33.4912 20.7785 34.4495 20.7892 35.4134C20.8288 36.3683 21.0415 37.3081 21.417 38.187C22.1966 39.9131 23.6178 41.2678 25.3792 41.964C25.5027 42.0103 25.6314 42.0463 25.76 42.0875C25.189 42.4226 24.5435 42.6101 23.8818 42.633C23.6426 42.6341 23.4042 42.6065 23.1717 42.5506C22.7416 42.2467 22.3418 41.9021 21.9779 41.5215C21.179 40.7112 20.5539 39.7464 20.1408 38.6861V38.645ZM39.6948 27.7565C39.2499 28.7647 38.6158 29.6782 37.8269 30.4477C37.3402 30.9485 36.788 31.3812 36.1854 31.7342L35.8972 30.9726C36.3896 30.674 36.8396 30.3105 37.2351 29.892C37.9034 29.185 38.4215 28.3501 38.7583 27.4374C39.0821 26.5294 39.2424 25.5712 39.2317 24.6072C39.1921 23.6523 38.9794 22.7126 38.6039 21.8337C37.8243 20.1075 36.4031 18.7528 34.6417 18.0566C34.4821 17.9949 34.3123 17.9486 34.1271 17.8971C34.9405 17.4164 35.9066 17.2637 36.8286 17.47C37.2575 17.7755 37.6571 18.12 38.0225 18.4992C38.8171 19.3089 39.4386 20.2718 39.8492 21.3294C40.2283 22.3735 40.4216 23.4759 40.4204 24.5867C40.3735 25.6908 40.1313 26.778 39.7051 27.7976L39.6948 27.7565Z" fill="white"/>
</g>
</svg>
