<svg width="60" height="60" viewBox="0 0 60 60" fill="none" xmlns="http://www.w3.org/2000/svg">
<g transform="translate(30,30) scale(1.2) translate(-30,-30)">
<path d="M30 55C43.8071 55 55 43.8071 55 30C55 16.1929 43.8071 5 30 5C16.1929 5 5 16.1929 5 30C5 43.8071 16.1929 55 30 55Z" fill="#DD1438"/>
<path d="M52.2845 35.564C49.2123 47.8854 36.7313 55.384 24.407 52.3114C12.0877 49.2395 4.58823 36.7593 7.66193 24.4386C10.7328 12.1157 23.2137 4.61636 35.5344 7.68826C47.858 10.7602 55.3568 23.2419 52.2845 35.564Z" fill="white"/>
<path d="M30 48.68L48 31.4L41.52 17L18.48 17L12 31.4L30 48.68Z" fill="#50AF95"/>
<path d="M32.1622 32.2358V32.2336C32.0385 32.2426 31.4006 32.2808 29.9775 32.2808C28.8412 32.2808 28.0414 32.2471 27.7601 32.2336V32.2369C23.3861 32.0446 20.1214 31.2829 20.1214 30.3717C20.1214 29.4616 23.3861 28.6999 27.7601 28.5042V31.4787C28.0459 31.4989 28.8649 31.5473 29.9966 31.5473C31.3545 31.5473 32.0351 31.4911 32.1622 31.4798V28.5064C36.5272 28.7011 39.7841 29.4627 39.7841 30.3717C39.7841 31.2829 36.5272 32.0423 32.1622 32.2358ZM32.1622 28.1971V25.5353H38.253V21.4763H21.6694V25.5353H27.7601V28.1959C22.8101 28.4232 19.0875 29.4042 19.0875 30.5787C19.0875 31.7532 22.8101 32.7331 27.7601 32.9614V41.4912H32.1622V32.9592C37.1044 32.7319 40.818 31.7521 40.818 30.5787C40.818 29.4053 37.1044 28.4254 32.1622 28.1971Z" fill="white"/>
</g>
</svg>
