<svg width="60" height="60" viewBox="0 0 60 60" fill="none" xmlns="http://www.w3.org/2000/svg">
<g transform="translate(30,30) scale(1.2) translate(-30,-30)">
<path d="M30 55C43.8071 55 55 43.8071 55 30C55 16.1929 43.8071 5 30 5C16.1929 5 5 16.1929 5 30C5 43.8071 16.1929 55 30 55Z" fill="#DD1438"/>
<path d="M52.2845 35.564C49.2122 47.8854 36.7313 55.384 24.407 52.3114C12.0877 49.2395 4.58821 36.7593 7.66191 24.4386C10.7327 12.1157 23.2137 4.61636 35.5344 7.68826C47.858 10.7602 55.3568 23.2419 52.2845 35.564Z" fill="white"/>
<path d="M29.9729 48C39.948 48 47.9729 39.9751 47.9729 30C47.9729 20.0249 39.948 12 29.9729 12C19.9979 12 11.9729 20.0249 11.9729 30C11.9729 39.9751 19.9979 48 29.9729 48Z" fill="#2775CA"/>
<path d="M34.9729 32.6514C34.9729 30.0374 33.4058 29.1411 30.2714 28.7677C28.0326 28.4689 27.5848 27.8715 27.5848 26.8257C27.5848 25.7799 28.3312 25.1079 29.8237 25.1079C31.167 25.1079 31.9133 25.5561 32.2864 26.6764C32.3611 26.9005 32.5849 27.0498 32.8088 27.0498H34.0027C34.3013 27.0498 34.5252 26.8257 34.5252 26.5271V26.4523C34.2266 24.8091 32.8833 23.5395 31.167 23.3902V21.5976C31.167 21.2988 30.9431 21.0747 30.57 21H29.4506C29.152 21 28.9281 21.2241 28.8534 21.5976V23.3154C26.6146 23.6142 25.1968 25.1079 25.1968 26.9752C25.1968 29.4399 26.6893 30.4108 29.8237 30.7843C31.9133 31.1577 32.5849 31.6058 32.5849 32.8009C32.5849 33.996 31.54 34.8175 30.1222 34.8175C28.1818 34.8175 27.5102 33.9958 27.2863 32.8755C27.2118 32.5768 26.9879 32.4273 26.764 32.4273H25.4952C25.1968 32.4273 24.9729 32.6514 24.9729 32.9502V33.025C25.2713 34.8921 26.4654 36.2365 28.9281 36.61V38.4026C28.9281 38.7012 29.152 38.9253 29.5251 39H30.6445C30.9431 39 31.167 38.7759 31.2416 38.4026V36.61C33.4805 36.2365 34.9729 34.668 34.9729 32.6514Z" fill="white"/>
<path d="M26.6583 40.5202C20.8241 38.4163 17.8322 31.8787 20.0014 26.0924C21.1234 22.9363 23.5917 20.5317 26.6583 19.4046C26.9575 19.2543 27.1071 19.0289 27.1071 18.6531V17.6011C27.1071 17.3005 26.9575 17.075 26.6583 17C26.5834 17 26.4339 17 26.359 17.075C19.2534 19.3294 15.3639 26.9191 17.6078 34.0578C18.9541 38.2659 22.1705 41.4972 26.359 42.8498C26.6583 43 26.9575 42.8498 27.0322 42.5491C27.1071 42.4741 27.1071 42.3989 27.1071 42.2487V41.1965C27.1071 40.9711 26.8827 40.6706 26.6583 40.5202ZM34.5868 17.075C34.2876 16.9248 33.9884 17.075 33.9137 17.3757C33.8388 17.4509 33.8388 17.5259 33.8388 17.6763V18.7283C33.8388 19.0289 34.0632 19.3294 34.2876 19.4798C40.1218 21.5837 43.1137 28.1213 40.9445 33.9076C39.8225 37.0637 37.3542 39.4683 34.2876 40.5954C33.9884 40.7457 33.8388 40.9711 33.8388 41.3469V42.3989C33.8388 42.6995 33.9884 42.925 34.2876 43C34.3625 43 34.512 43 34.5868 42.925C41.6925 40.6706 45.582 33.0809 43.3381 25.9422C41.9918 21.6589 38.7006 18.4276 34.5868 17.075Z" fill="white"/>
</g>
</svg>
