<svg width="60" height="60" viewBox="0 0 60 60" fill="none" xmlns="http://www.w3.org/2000/svg">
<g transform="translate(30,30) scale(1.2) translate(-30,-30)">
<path d="M30 55C43.8071 55 55 43.8071 55 30C55 16.1929 43.8071 5 30 5C16.1929 5 5 16.1929 5 30C5 43.8071 16.1929 55 30 55Z" fill="#DD1438"/>
<path d="M52.2845 35.564C49.2123 47.8854 36.7313 55.384 24.407 52.3114C12.0877 49.2395 4.58823 36.7593 7.66193 24.4386C10.7328 12.1157 23.2137 4.61636 35.5344 7.68826C47.858 10.7602 55.3568 23.2419 52.2845 35.564Z" fill="white"/>
<path d="M41.3542 19.5552L40.3657 20.5436C42.7244 23.123 44.0324 26.4916 44.0324 29.9868C44.0324 33.482 42.7244 36.8506 40.3657 39.43L41.3542 40.4184C43.9773 37.5732 45.4336 33.8451 45.4336 29.9753C45.4336 26.1054 43.9773 22.3773 41.3542 19.5321V19.5552Z" fill="#5A5564"/>
<path d="M20.5667 19.6409C23.1461 17.2822 26.5147 15.9743 30.0099 15.9743C33.505 15.9743 36.8737 17.2822 39.453 19.6409L40.4415 18.6524C37.5963 16.0294 33.8682 14.5731 29.9983 14.5731C26.1285 14.5731 22.4004 16.0294 19.5552 18.6524L20.5667 19.6409Z" fill="#5A5564"/>
<path d="M19.6409 39.4399C17.285 36.8611 15.9788 33.4945 15.9788 30.0016C15.9788 26.5088 17.285 23.1422 19.6409 20.5634L18.6524 19.575C16.0294 22.4202 14.5731 26.1483 14.5731 30.0181C14.5731 33.888 16.0294 37.6161 18.6524 40.4613L19.6409 39.4399Z" fill="#5A5564"/>
<path d="M39.4399 40.3526C36.8605 42.7112 33.4919 44.0192 29.9967 44.0192C26.5015 44.0192 23.1329 42.7112 20.5535 40.3526L19.5651 41.3411C22.4103 43.9641 26.1384 45.4204 30.0082 45.4204C33.8781 45.4204 37.6062 43.9641 40.4514 41.3411L39.4399 40.3526Z" fill="#5A5564"/>
<path d="M36.2405 26.7018C36.0428 24.6392 34.2636 23.9472 32.0132 23.7364V20.8962H30.2735V23.6837C29.8155 23.6837 29.3476 23.6837 28.883 23.6837V20.8962H27.1565V23.7561H23.6277V25.6178C23.6277 25.6178 24.9127 25.5947 24.8929 25.6178C25.1246 25.5923 25.3572 25.6577 25.5416 25.8003C25.7259 25.9429 25.8478 26.1515 25.8814 26.3822V34.2108C25.8764 34.2922 25.8552 34.3717 25.819 34.4447C25.7828 34.5177 25.7323 34.5827 25.6705 34.6359C25.6099 34.69 25.539 34.7314 25.462 34.7574C25.3849 34.7835 25.3035 34.7937 25.2224 34.7874C25.2455 34.8072 23.9572 34.7874 23.9572 34.7874L23.6277 36.8665H27.1236V39.7726H28.8633V36.9094H30.2537V39.7594H31.9967V36.8863C34.9358 36.7084 36.9852 35.9835 37.2422 33.2323C37.4498 31.0181 36.4086 30.0296 34.7447 29.6309C35.7562 29.1334 36.3822 28.2108 36.2405 26.7018ZM33.8023 32.8896C33.8023 35.051 30.0989 34.8039 28.9193 34.8039V30.9687C30.0989 30.972 33.8023 30.6326 33.8023 32.8896ZM32.9951 27.486C32.9951 29.4629 29.9045 29.2224 28.9226 29.2224V25.7364C29.9045 25.7364 32.9951 25.4267 32.9951 27.486Z" fill="#F09242"/>
<path d="M29.9967 48C26.4369 47.9994 22.9573 46.9432 19.9977 44.9651C17.0381 42.987 14.7315 40.1757 13.3695 36.8868C12.0076 33.5979 11.6514 29.9789 12.346 26.4876C13.0407 22.9962 14.7549 19.7892 17.2721 17.2721C19.7892 14.7549 22.9962 13.0407 26.4876 12.346C29.9789 11.6514 33.5979 12.0076 36.8868 13.3695C40.1757 14.7315 42.987 17.0381 44.9651 19.9977C46.9432 22.9573 47.9994 26.4369 48 29.9967C48.0004 32.3611 47.5351 34.7023 46.6305 36.8868C45.7259 39.0712 44.3998 41.0561 42.7279 42.7279C41.0561 44.3998 39.0712 45.7259 36.8868 46.6305C34.7023 47.5351 32.3611 48.0004 29.9967 48ZM29.9967 13.4036C26.7171 13.4062 23.5118 14.3811 20.786 16.2049C18.0603 18.0287 15.9364 20.6197 14.6828 23.6504C13.4293 26.681 13.1023 30.0152 13.7432 33.2316C14.3842 36.4481 15.9643 39.4023 18.2838 41.7209C20.6033 44.0395 23.5582 45.6184 26.7748 46.2581C29.9915 46.8977 33.3256 46.5694 36.3557 45.3147C39.3859 44.0599 41.976 41.935 43.7988 39.2085C45.6215 36.482 46.5951 33.2764 46.5964 29.9967C46.5973 27.8169 46.1684 25.6583 45.3344 23.6443C44.5005 21.6303 43.2777 19.8004 41.736 18.2594C40.1943 16.7183 38.364 15.4962 36.3497 14.663C34.3353 13.8299 32.1765 13.4019 29.9967 13.4036Z" fill="#282138"/>
</g>
</svg>
