<svg width="60" height="60" viewBox="0 0 60 60" fill="none" xmlns="http://www.w3.org/2000/svg">
<path d="M30 60C46.5685 60 60 46.5685 60 30C60 13.4315 46.5685 0 30 0C13.4315 0 0 13.4315 0 30C0 46.5685 13.4315 60 30 60Z" fill="#DD1438"/>
<path d="M47.0068 15.3684C46.259 13.5651 45.1465 11.9359 43.7393 10.5828C42.3197 9.25567 40.6685 8.20044 38.8679 7.46961C37.6452 6.98279 36.3607 6.66817 35.0514 6.53479C32.5657 6.18965 30.033 6.484 27.6927 7.39003C25.3524 8.29606 23.2818 9.78385 21.6764 11.7128C20.0711 13.6418 18.9841 15.9482 18.5182 18.4141C18.0523 20.8801 18.2228 23.4241 19.0137 25.8058V25.8487C17.9152 26.5313 16.9116 27.356 16.0291 28.3015C14.6668 29.7297 13.5924 31.4069 12.8645 33.2415C12.164 35.0786 11.8121 37.0301 11.8267 38.9962C11.8311 40.9485 12.24 42.8787 13.0274 44.6652C13.7783 46.4668 14.8904 48.0955 16.295 49.4507C17.719 50.7763 19.3727 51.8313 21.1749 52.564C22.8151 53.2113 24.5578 53.5598 26.3207 53.5931H26.5866C28.9242 53.6109 31.2329 53.0749 33.3235 52.0288C35.4141 50.9827 37.2272 49.4563 38.6144 47.5747C40.0016 45.693 40.9234 43.5096 41.3043 41.2031C41.6853 38.8966 41.5146 36.5327 40.8061 34.3049C41.9742 33.5967 43.0391 32.731 43.9708 31.732C45.3448 30.3097 46.4311 28.6352 47.1698 26.8007C47.8763 24.962 48.2313 23.007 48.2161 21.0374C48.2087 19.0845 47.797 17.1543 47.0068 15.3684ZM34.0737 16.4319C33.9659 15.9682 33.9169 15.4927 33.9279 15.0168C34.4634 15.1061 34.987 15.2557 35.4888 15.4628C36.1946 15.7669 36.8222 16.2273 37.3242 16.8092C37.8093 17.3798 38.187 18.0336 38.4391 18.7389C38.6727 19.4348 38.783 20.1663 38.765 20.9001C38.6848 22.27 38.1014 23.5619 37.1269 24.5279L34.0737 16.4319ZM37.5643 25.6772C37.6586 25.5914 37.753 25.4971 37.8387 25.4027C38.4277 24.7797 38.8855 24.0447 39.1852 23.2415C39.4726 22.4448 39.6064 21.6009 39.5797 20.7543C39.5689 19.9259 39.3787 19.1095 39.0223 18.3616C38.6587 17.6415 38.1709 16.9911 37.5814 16.4405C37.0009 15.9104 36.322 15.4996 35.5832 15.2312C35.0461 15.0496 34.4858 14.9456 33.9194 14.9224C33.9497 13.9863 34.1901 13.0689 34.6226 12.2381C35.2738 12.3599 35.9075 12.5615 36.5094 12.8384C37.5566 13.3222 38.5024 14.0002 39.2967 14.8367C40.0366 15.6961 40.6331 16.6691 41.0634 17.7183C41.4472 18.7644 41.6361 19.8718 41.6209 20.9859C41.6372 22.097 41.3904 23.1961 40.9005 24.1935C40.4998 25.1983 39.8715 26.0966 39.0652 26.8178C38.7971 27.055 38.5103 27.2701 38.2075 27.461L37.5643 25.6772ZM38.6535 28.5502C39.0704 28.2433 39.4632 27.905 39.8284 27.5382C41.5038 25.7087 42.4232 23.3121 42.4013 20.8315C42.3821 19.6205 42.1135 18.4264 41.6123 17.3238C41.1305 16.2304 40.4267 15.2491 39.5454 14.4422C38.6924 13.6422 37.6898 13.0185 36.5952 12.6068C35.9668 12.3879 35.3171 12.2355 34.6569 12.1523C34.9335 11.6338 35.2862 11.1597 35.7032 10.7458C36.0227 10.419 36.3796 10.1311 36.7667 9.88814C37.0594 9.98806 37.3458 10.1055 37.6243 10.2398C39.0155 10.8292 40.2664 11.706 41.295 12.8127C42.3457 13.8977 43.1758 15.1764 43.7393 16.5777C44.27 17.9804 44.5375 19.469 44.5283 20.9688C44.4615 22.4425 44.1394 23.8934 43.5763 25.2569C42.9716 26.5675 42.1282 27.7541 41.0892 28.7561C40.551 29.2998 39.9525 29.7803 39.3053 30.1883L38.6535 28.5502ZM23.0531 50.0597C22.8133 49.9795 22.5784 49.885 22.3499 49.7766C20.9587 49.1873 19.7078 48.3105 18.6792 47.2037C17.6519 46.1186 16.8425 44.8463 16.295 43.4559C15.7642 42.0532 15.4967 40.5646 15.506 39.0648C15.5719 37.591 15.894 36.1399 16.4579 34.7766C17.0624 33.4634 17.9058 32.2739 18.9451 31.2689C19.4452 30.7619 19.9939 30.3052 20.5832 29.9053L21.235 31.6206C20.864 31.9004 20.5116 32.204 20.1801 32.5296C19.3448 33.4337 18.6924 34.4909 18.259 35.6429C17.8086 36.7895 17.5872 38.0132 17.6072 39.2449C17.6274 40.4558 17.896 41.6497 18.3962 42.7526C19.3818 44.9227 21.1852 46.6151 23.4134 47.461C23.9702 47.6599 24.5445 47.8064 25.1286 47.8984C24.8523 48.3874 24.512 48.8374 24.1166 49.2363C23.7941 49.5497 23.4374 49.8259 23.0531 50.0597V50.0597ZM23.4905 47.1694C22.4434 46.6857 21.4975 46.0076 20.7032 45.1712C19.9654 44.3135 19.369 43.3436 18.9365 42.2981C18.5534 41.2489 18.3645 40.1388 18.379 39.0219C18.3627 37.9109 18.6096 36.8117 19.0995 35.8144C19.5002 34.8095 20.1284 33.9112 20.9348 33.19C21.1519 32.9903 21.381 32.8042 21.6209 32.6326L22.2984 34.4679L22.1355 34.6308C21.5466 35.2539 21.0887 35.9888 20.789 36.7921C20.5016 37.5888 20.3678 38.4327 20.3945 39.2792C20.4054 40.1077 20.5955 40.924 20.9519 41.672C21.3155 42.3921 21.8033 43.0424 22.3928 43.5931C22.9733 44.1231 23.6522 44.534 24.3911 44.8024C24.8811 44.9693 25.392 45.0674 25.9091 45.094C25.8703 46.0277 25.6179 46.9402 25.1715 47.7612C24.5908 47.6274 24.027 47.4289 23.4905 47.1694V47.1694ZM25.8147 43.5502C25.9057 44.0191 25.946 44.4964 25.9348 44.9739C25.4473 44.8781 24.9704 44.7345 24.5111 44.5451C23.8053 44.2409 23.1778 43.7806 22.6758 43.1986C22.1907 42.628 21.8129 41.9742 21.5609 41.2689C21.3272 40.573 21.2169 39.8416 21.235 39.1077C21.3151 37.7927 21.8555 36.5478 22.7616 35.5914L25.8147 43.5502ZM13.5677 44.4079C12.9353 42.6679 12.613 40.8304 12.6158 38.979C12.7003 37.1406 13.1098 35.3317 13.825 33.636C14.5666 31.9557 15.6234 30.4331 16.9382 29.1506C17.7087 28.3842 18.5733 27.7185 19.5111 27.1694L19.9914 28.4387C19.2363 28.9257 18.5423 29.5016 17.9245 30.154C16.8246 31.3562 15.9787 32.7681 15.4374 34.3049C14.8977 35.8183 14.6305 37.4153 14.6483 39.0219C14.7144 40.6134 15.0689 42.1797 15.6947 43.6446C16.9941 46.5215 19.3627 48.7793 22.2984 49.9396C22.5043 50.0168 22.7187 50.0768 22.9331 50.1454C21.9814 50.7039 20.9055 51.0164 19.8027 51.0545C19.4041 51.0564 19.0068 51.0104 18.6192 50.9173C17.9024 50.4107 17.2361 49.8363 16.6295 49.202C15.298 47.8516 14.2562 46.2436 13.5677 44.4765V44.4079ZM46.1578 26.2604C45.4161 27.9407 44.3593 29.4633 43.0446 30.7458C42.2333 31.5804 41.3131 32.3016 40.3087 32.8899L39.8284 31.6206C40.6491 31.1229 41.3991 30.5171 42.0583 29.8195C43.172 28.6413 44.0356 27.2497 44.5969 25.7286C45.1366 24.2153 45.4037 22.6182 45.3859 21.0116C45.3199 19.4201 44.9653 17.8538 44.3396 16.389C43.0402 13.5121 40.6716 11.2543 37.7358 10.094C37.47 9.99105 37.1869 9.91387 36.8782 9.8281C38.2339 9.02691 39.844 8.77237 41.3808 9.11627C42.0955 9.62536 42.7616 10.1996 43.3705 10.8315C44.6948 12.1811 45.7307 13.7859 46.4151 15.5485C47.0468 17.2887 47.369 19.126 47.367 20.9773C47.2889 22.8176 46.8853 24.6295 46.1749 26.329L46.1578 26.2604Z" fill="white"/>
</svg>
