<svg width="60" height="60" viewBox="0 0 60 60" fill="none" xmlns="http://www.w3.org/2000/svg">
<g transform="translate(30,30) scale(1.2) translate(-30,-30)">
<path d="M30 55C43.8071 55 55 43.8071 55 30C55 16.1929 43.8071 5 30 5C16.1929 5 5 16.1929 5 30C5 43.8071 16.1929 55 30 55Z" fill="#2775CA"/>
<path d="M25.3137 47.3824C25.3137 47.9706 24.853 48.3039 24.2843 48.1275C16.7255 45.7157 11.2451 38.6275 11.2451 30.2647C11.2451 21.902 16.7255 14.8137 24.2843 12.402C24.853 12.2255 25.3137 12.5588 25.3137 13.1471V14.598C25.3137 14.9902 25.0098 15.451 24.6373 15.5784C18.6569 17.7745 14.3726 23.5196 14.3726 30.2549C14.3726 36.9902 18.6569 42.7353 24.6373 44.9314C25.0098 45.0686 25.3137 45.5196 25.3137 45.9118V47.3824Z" fill="white"/>
<path d="M31.5584 41.9805C31.5584 42.4118 31.2055 42.7648 30.7741 42.7648H29.2153C28.7839 42.7648 28.431 42.4118 28.431 41.9805V39.5099C25.0192 39.0491 23.3526 37.1373 22.9016 34.5393C22.8232 34.0981 23.1761 33.6961 23.6271 33.6961H25.4114C25.7839 33.6961 26.0977 33.9608 26.1761 34.3334C26.5094 35.8824 27.4016 37.0687 30.1369 37.0687C32.1565 37.0687 33.5879 35.9412 33.5879 34.255C33.5879 32.5687 32.7447 31.9314 29.7839 31.4412C25.4114 30.853 23.3428 29.5295 23.3428 26.0981C23.3428 23.451 25.3428 21.3922 28.4408 20.951V18.5295C28.4408 18.0981 28.7937 17.7452 29.2251 17.7452H30.7839C31.2153 17.7452 31.5683 18.0981 31.5683 18.5295V21.0197C34.0879 21.4707 35.6859 22.902 36.2055 25.2746C36.3035 25.7256 35.9506 26.1471 35.4898 26.1471H33.8428C33.4898 26.1471 33.1957 25.9118 33.0879 25.5687C32.6467 24.0589 31.5683 23.4118 29.6957 23.4118C27.6271 23.4118 26.5584 24.4118 26.5584 25.8138C26.5584 27.2942 27.1663 28.0393 30.3428 28.5001C34.6369 29.0883 36.8526 30.3138 36.8526 33.9707C36.8526 36.7452 34.7937 38.9903 31.5683 39.5099V41.9805H31.5584Z" fill="white"/>
<path d="M35.7153 48.1275C35.1467 48.304 34.6859 47.9706 34.6859 47.3824V45.9314C34.6859 45.5001 34.9506 45.0981 35.3623 44.951C41.3427 42.755 45.6271 37.0099 45.6271 30.2746C45.6271 23.5393 41.3427 17.7942 35.3623 15.5981C34.9898 15.4608 34.6859 15.0099 34.6859 14.6177V13.1667C34.6859 12.5785 35.1467 12.2354 35.7153 12.4216C43.2741 14.8334 48.7545 21.9216 48.7545 30.2844C48.7447 38.6275 43.2741 45.7059 35.7153 48.1275Z" fill="white"/>
</g>
</svg>
