<svg width="60" height="60" viewBox="0 0 60 60" fill="none" xmlns="http://www.w3.org/2000/svg">
<g clip-path="url(#clip0_2589_38551)">
<circle cx="30" cy="30" r="30" fill="white"/>
<path d="M45.7697 15.4933L44.3969 16.8661C47.6727 20.4486 49.4894 25.1272 49.4894 29.9817C49.4894 34.8361 47.6727 39.5147 44.3969 43.0972L45.7697 44.47C49.4129 40.5184 51.4355 35.3404 51.4355 29.9656C51.4355 24.5909 49.4129 19.4129 45.7697 15.4612V15.4933Z" fill="#5A5564"/>
<path d="M16.8982 15.6123C20.4806 12.3364 25.1593 10.5198 30.0137 10.5198C34.8681 10.5198 39.5468 12.3364 43.1292 15.6123L44.5021 14.2395C40.5504 10.5963 35.3725 8.57367 29.9977 8.57367C24.6229 8.57367 19.445 10.5963 15.4933 14.2395L16.8982 15.6123Z" fill="#5A5564"/>
<path d="M15.6123 43.1109C12.3403 39.5293 10.526 34.8535 10.526 30.0023C10.526 25.1511 12.3403 20.4752 15.6123 16.8936L14.2395 15.5208C10.5963 19.4724 8.57367 24.6504 8.57367 30.0251C8.57367 35.3999 10.5963 40.5779 14.2395 44.5295L15.6123 43.1109Z" fill="#5A5564"/>
<path d="M43.1109 44.3786C39.5285 47.6545 34.8498 49.4712 29.9954 49.4712C25.141 49.4712 20.4623 47.6545 16.8799 44.3786L15.507 45.7515C19.4587 49.3946 24.6366 51.4173 30.0114 51.4173C35.3862 51.4173 40.5641 49.3946 44.5158 45.7515L43.1109 44.3786Z" fill="#5A5564"/>
<path d="M38.6674 25.4192C38.3928 22.5544 35.9216 21.5934 32.7961 21.3006V17.3558H30.3798V21.2273C29.7437 21.2273 29.0939 21.2273 28.4486 21.2273V17.3558H26.0507V21.328H21.1495V23.9136C21.1495 23.9136 22.9343 23.8816 22.9068 23.9136C23.2286 23.8782 23.5516 23.9691 23.8077 24.1671C24.0638 24.3652 24.233 24.6549 24.2797 24.9753V35.8484C24.2728 35.9614 24.2433 36.0719 24.193 36.1733C24.1427 36.2747 24.0726 36.3649 23.9868 36.4388C23.9026 36.514 23.8041 36.5714 23.6971 36.6076C23.5902 36.6438 23.477 36.6579 23.3644 36.6493C23.3965 36.6767 21.6072 36.6493 21.6072 36.6493L21.1495 39.5369H26.0049V43.5731H28.4212V39.5964H30.3524V43.5548H32.7732V39.5643C36.8552 39.3172 39.7016 38.3104 40.0586 34.4893C40.3469 31.414 38.9008 30.0412 36.5898 29.4874C37.9947 28.7964 38.8642 27.5151 38.6674 25.4192ZM35.281 34.0134C35.281 37.0154 30.1373 36.6721 28.499 36.6721V31.3454C30.1373 31.35 35.281 30.8786 35.281 34.0134ZM34.1598 26.5083C34.1598 29.2541 29.8673 28.92 28.5036 28.92V24.0783C29.8673 24.0783 34.1598 23.6482 34.1598 26.5083Z" fill="#F09242"/>
<path d="M29.9954 55C25.0513 54.9991 20.2184 53.5322 16.1079 50.7848C11.9974 48.0375 8.79377 44.133 6.90215 39.565C5.01052 34.997 4.51583 29.9707 5.4806 25.1216C6.44538 20.2725 8.8263 15.8184 12.3223 12.3223C15.8184 8.8263 20.2725 6.44538 25.1216 5.4806C29.9707 4.51583 34.997 5.01052 39.565 6.90215C44.133 8.79377 48.0375 11.9974 50.7848 16.1079C53.5322 20.2184 54.9991 25.0513 55 29.9954C55.0006 33.2793 54.3543 36.531 53.0979 39.565C51.8415 42.599 49.9997 45.3557 47.6777 47.6777C45.3557 49.9997 42.599 51.8415 39.565 53.0979C36.531 54.3543 33.2793 55.0006 29.9954 55ZM29.9954 6.94949C25.4404 6.95311 20.9886 8.30704 17.2028 10.8401C13.417 13.3733 10.4672 16.9718 8.72614 21.181C6.98508 25.3903 6.53095 30.0211 7.42116 34.4884C8.31136 38.9556 10.5059 43.0587 13.7275 46.279C16.9491 49.4993 21.053 51.6922 25.5206 52.5806C29.9882 53.4691 34.6189 53.0131 38.8274 51.2704C43.0359 49.5276 46.6333 46.5764 49.165 42.7896C51.6966 39.0028 53.0487 34.5505 53.0505 29.9954C53.0517 26.9679 52.4562 23.9698 51.2978 21.1726C50.1395 18.3754 48.4412 15.8339 46.3 13.6936C44.1588 11.5532 41.6166 9.85588 38.819 8.69868C36.0213 7.54148 33.023 6.94708 29.9954 6.94949Z" fill="#282138"/>
</g>
<defs>
<clipPath id="clip0_2589_38551">
<rect width="60" height="60" fill="white"/>
</clipPath>
</defs>
</svg>
